# 3ds Max Wavefront OBJ Exporter v0.97b - (c)2007 guruware
# File Created: 17.11.2020 15:17:08

mtllib GreenPaperPlane.mtl

#
# object Layer0_001
#

v  0.8742 -9.8240 1.6437
v  0.7354 7.4016 1.6437
v  0.0000 1.4850 0.0242
v  0.0000 -9.9213 0.0242
v  6.2510 -9.8240 1.6437
v  6.2510 -2.2812 1.6437
v  0.7536 7.4016 1.6195
v  0.0182 1.4850 0.0000
v  0.0182 9.9213 0.0000
v  0.7173 7.4016 1.6679
v  -0.0182 9.9213 0.0483
v  -0.0182 1.4850 0.0483
v  -6.3203 -9.9213 1.6437
v  -6.3203 -2.2160 1.6603
v  -6.3203 -9.2643 2.3894
v  -6.3203 -9.9213 2.3917
v  -6.3203 -7.8619 2.3421
v  -6.3203 -8.6075 2.3761
v  -6.3203 -6.5994 2.2639
v  -6.3203 -7.2950 2.3167
v  -6.3203 -5.3318 2.1458
v  -6.3203 -5.9852 2.2137
v  -6.3203 -4.0288 1.9774
v  -6.3203 -4.6796 2.0670
v  -6.3203 -2.7321 1.7657
v  -6.3203 -3.3796 1.8770
v  -0.7354 -9.9213 1.6437
v  -0.7354 7.4016 1.6437
v  -0.7536 7.4016 1.6195
v  -0.0182 1.4850 0.0000
v  -0.0182 9.9213 0.0000
v  0.0182 9.9213 0.0483
v  -0.7173 7.4016 1.6679
v  0.0182 1.4850 0.0483
v  6.3203 -9.9213 2.3917
v  6.3203 -9.2643 2.3894
v  6.3203 -8.6075 2.3761
v  6.3203 -7.9510 2.3519
v  6.3203 -7.2950 2.3167
v  6.3203 -6.6397 2.2707
v  6.3203 -5.9852 2.2137
v  6.3203 -5.3318 2.1458
v  6.3203 -4.6796 2.0670
v  6.3203 -4.0288 1.9774
v  6.3203 -3.3796 1.8770
v  6.3203 -2.7321 1.7657
v  6.3203 -3.9216 2.3917
v  -6.3203 -3.9216 2.3917
# 48 vertices

vn -0.7893 0.0000 0.6140
vn 0.0000 0.0000 1.0000
vn -0.5801 0.3277 -0.7457
vn -0.4761 -0.6314 -0.6120
vn 0.5801 -0.3277 0.7457
vn 0.6140 0.0000 0.7893
vn 1.0000 0.0000 0.0000
vn 0.5801 0.3277 -0.7457
vn 0.7893 0.0000 0.6140
vn 0.4761 -0.6314 -0.6120
vn -0.5801 -0.3277 0.7457
vn -0.6140 0.0000 0.7893
vn -1.0000 0.0000 0.0000
# 13 vertex normals

vt 1.2727 0.0056 0.0000
vt 1.2478 1.0000 0.0000
vt 1.1161 0.6585 -97.6647
vt 1.1161 0.0000 -97.6647
vt 2.2354 0.0056 0.0000
vt 2.2354 0.4410 0.0000
vt 1.2511 1.0000 -1.4594
vt 1.1194 0.6585 -99.1241
vt 1.1194 1.1455 -99.1241
vt 1.2446 1.0000 1.4594
vt 1.1129 1.1455 -96.2113
vt 1.1129 0.6585 -96.2113
vt -0.0155 0.0000 0.0000
vt -0.0155 0.4448 1.0000
vt -0.0155 0.0379 44.9698
vt -0.0155 0.0000 45.1085
vt -0.0155 0.1189 42.1171
vt -0.0155 0.0758 44.1677
vt -0.0155 0.1918 37.4027
vt -0.0155 0.1516 40.5856
vt -0.0155 0.2649 30.2794
vt -0.0155 0.2272 34.3741
vt -0.0155 0.3402 20.1239
vt -0.0155 0.3026 25.5273
vt -0.0155 0.4150 7.3573
vt -0.0155 0.3776 14.0693
vt 0.9845 0.0000 0.0000
vt 0.9845 1.0000 0.0000
vt 0.9812 1.0000 -1.4594
vt 1.1129 0.6585 -99.1241
vt 1.1129 1.1455 -99.1241
vt 1.1194 1.1455 -96.2113
vt 0.9877 1.0000 1.4594
vt 1.1194 0.6585 -96.2113
vt 2.2478 -0.0000 45.1085
vt 2.2478 0.0379 44.9698
vt 2.2478 0.0758 44.1677
vt 2.2478 0.1137 42.7083
vt 2.2478 0.1516 40.5856
vt 2.2478 0.1894 37.8115
vt 2.2478 0.2272 34.3741
vt 2.2478 0.2649 30.2794
vt 2.2478 0.3026 25.5273
vt 2.2478 0.3402 20.1239
vt 2.2478 0.3776 14.0693
vt 2.2478 0.4150 7.3573
vt 2.2478 0.3463 45.1085
vt -0.0155 0.3463 45.1085
# 48 texture coords

g Layer0_001
usemtl Material__39
f 1/1/1 2/2/1 3/3/1 4/4/1 
f 1/1/2 5/5/2 6/6/2 2/2/2 
f 3/3/3 2/2/3 7/7/3 8/8/3 
f 9/9/1 8/8/1 7/7/1 
f 9/9/4 7/7/4 10/10/4 11/11/4 
f 10/10/4 7/7/4 2/2/4 
f 11/11/1 12/12/1 10/10/1 
f 12/12/5 3/3/5 2/2/5 10/10/5 
f 12/12/6 3/3/6 9/9/6 11/11/6 
f 9/9/6 3/3/6 8/8/6 
f 13/13/7 14/14/7 15/15/7 16/16/7 
f 15/15/7 14/14/7 17/17/7 18/18/7 
f 17/17/7 14/14/7 19/19/7 20/20/7 
f 19/19/7 14/14/7 21/21/7 22/22/7 
f 21/21/7 14/14/7 23/23/7 24/24/7 
f 23/23/7 14/14/7 25/25/7 26/26/7 
f 14/14/2 13/13/2 27/27/2 28/28/2 
f 29/29/8 28/28/8 3/3/8 30/30/8 
f 27/27/9 4/4/9 3/3/9 28/28/9 
f 31/31/9 29/29/9 30/30/9 
f 31/31/10 32/32/10 33/33/10 29/29/10 
f 29/29/10 33/33/10 28/28/10 
f 32/32/9 33/33/9 34/34/9 
f 28/28/11 3/3/11 34/34/11 33/33/11 
f 30/30/12 3/3/12 32/32/12 31/31/12 
f 32/32/12 3/3/12 34/34/12 
f 5/5/13 35/35/13 36/36/13 6/6/13 
f 36/36/13 37/37/13 38/38/13 6/6/13 
f 38/38/13 39/39/13 40/40/13 6/6/13 
f 40/40/13 41/41/13 42/42/13 6/6/13 
f 42/42/13 43/43/13 44/44/13 6/6/13 
f 44/44/13 45/45/13 46/46/13 6/6/13 
f 47/47/13 37/37/13 36/36/13 35/35/13 
f 47/47/13 39/39/13 38/38/13 37/37/13 
f 47/47/13 41/41/13 40/40/13 39/39/13 
f 47/47/13 43/43/13 42/42/13 41/41/13 
f 47/47/13 45/45/13 44/44/13 43/43/13 
f 47/47/13 6/6/13 46/46/13 45/45/13 
f 15/15/7 18/18/7 48/48/7 16/16/7 
f 17/17/7 20/20/7 48/48/7 18/18/7 
f 19/19/7 22/22/7 48/48/7 20/20/7 
f 21/21/7 24/24/7 48/48/7 22/22/7 
f 23/23/7 26/26/7 48/48/7 24/24/7 
f 25/25/7 14/14/7 48/48/7 26/26/7 
# 36 polygons - 8 triangles

