# 3ds Max Wavefront OBJ Exporter v0.97b - (c)2007 guruware
# File Created: 17.11.2020 17:29:29

mtllib BrickWall.mtl

#
# object Box001
#

v  -8.8168 -1.1516 0.0000
v  -8.8168 1.1516 0.0000
v  8.8168 1.1516 0.0000
v  8.8168 -1.1516 0.0000
v  -8.8168 -1.1516 10.2807
v  8.8168 -1.1516 10.2807
v  8.8168 1.1516 10.2807
v  -8.8168 1.1516 10.2807
# 8 vertices

vn 0.0000 0.0000 -1.0000
vn 0.0000 0.0000 1.0000
vn 0.0000 -1.0000 0.0000
vn 1.0000 0.0000 0.0000
vn 0.0000 1.0000 0.0000
vn -1.0000 0.0000 0.0000
# 6 vertex normals

vt 1.0093 -0.2424 0.0624
vt 1.0093 -0.0687 0.0624
vt -0.0100 -0.0687 0.0624
vt -0.0100 -0.2424 0.0624
vt -0.0093 -0.2424 0.8742
vt 1.0100 -0.2424 0.8742
vt 1.0100 -0.0687 0.8742
vt -0.0093 -0.0687 0.8742
vt -0.0093 0.0624 -0.2424
vt 1.0100 0.0624 -0.2424
vt 1.0100 0.8742 -0.2424
vt -0.0093 0.8742 -0.2424
vt -0.2424 0.0624 1.0100
vt -0.0687 0.0624 1.0100
vt -0.0687 0.8742 1.0100
vt -0.2424 0.8742 1.0100
vt -0.0100 0.0624 -0.0687
vt 1.0093 0.0624 -0.0687
vt 1.0093 0.8742 -0.0687
vt -0.0100 0.8742 -0.0687
vt 1.0687 0.0624 -0.0093
vt 1.2424 0.0624 -0.0093
vt 1.2424 0.8742 -0.0093
vt 1.0687 0.8742 -0.0093
# 24 texture coords

g Box001
usemtl Material__42
f 1/1/1 2/2/1 3/3/1 4/4/1 
f 5/5/2 6/6/2 7/7/2 8/8/2 
f 1/9/3 4/10/3 6/11/3 5/12/3 
f 4/13/4 3/14/4 7/15/4 6/16/4 
f 3/17/5 2/18/5 8/19/5 7/20/5 
f 2/21/6 1/22/6 5/23/6 8/24/6 
# 6 polygons

